<svg id="visual" viewBox="0 0 978 303" width="978" height="303" xmlns="http://www.w3.org/2000/svg" xmlns:xlink="http://www.w3.org/1999/xlink" version="1.1"><g stroke-width="1" stroke-linejoin="bevel"><path d="M464.1 182.9L429.1 168.1L470.1 199.4Z" fill="#227197" stroke="#227197"></path><path d="M429.1 168.1L404.2 177.1L470.1 199.4Z" fill="#174c66" stroke="#174c66"></path><path d="M404.2 177.1L466 233.4L470.1 199.4Z" fill="#1a5572" stroke="#1a5572"></path><path d="M404.2 177.1L369.3 214.7L466 233.4Z" fill="#174c66" stroke="#174c66"></path><path d="M475 67.3L407.2 129.6L429.1 168.1Z" fill="#2b8dbe" stroke="#2b8dbe"></path><path d="M429.1 168.1L407.2 129.6L404.2 177.1Z" fill="#2e97cb" stroke="#2e97cb"></path><path d="M404.2 177.1L352.3 165.9L369.3 214.7Z" fill="#2884b1" stroke="#2884b1"></path><path d="M407.2 129.6L352.3 165.9L404.2 177.1Z" fill="#32a1d8" stroke="#32a1d8"></path><path d="M334.3 171.1L351.2 242.4L369.3 214.7Z" fill="#2b8dbe" stroke="#2b8dbe"></path><path d="M369.3 214.7L361.2 265.7L466 233.4Z" fill="#257aa4" stroke="#257aa4"></path><path d="M351.2 242.4L361.2 265.7L369.3 214.7Z" fill="#1a5572" stroke="#1a5572"></path><path d="M323.3 171.4L334.3 171.1L301.4 130.9Z" fill="#2884b1" stroke="#2884b1"></path><path d="M352.3 165.9L334.3 171.1L369.3 214.7Z" fill="#2e97cb" stroke="#2e97cb"></path><path d="M361.2 265.7L442.1 309.7L466 233.4Z" fill="#2884b1" stroke="#2884b1"></path><path d="M470.1 199.4L539 166.1L464.1 182.9Z" fill="#257aa4" stroke="#257aa4"></path><path d="M464.1 182.9L475 67.3L429.1 168.1Z" fill="#227197" stroke="#227197"></path><path d="M527 275.7L539 166.1L470.1 199.4Z" fill="#2b8dbe" stroke="#2b8dbe"></path><path d="M527 275.7L470.1 199.4L466 233.4Z" fill="#227197" stroke="#227197"></path><path d="M442.1 309.7L487 303L466 233.4Z" fill="#1c5e7e" stroke="#1c5e7e"></path><path d="M301.4 130.9L334.3 171.1L352.3 165.9Z" fill="#35abe6" stroke="#35abe6"></path><path d="M334.3 171.1L323.3 171.4L351.2 242.4Z" fill="#1a5572" stroke="#1a5572"></path><path d="M487 303L527 275.7L466 233.4Z" fill="#32a1d8" stroke="#32a1d8"></path><path d="M543.9 313.7L496.1 303L487 303Z" fill="#227197" stroke="#227197"></path><path d="M487 303L496.1 303L527 275.7Z" fill="#2b8dbe" stroke="#2b8dbe"></path><path d="M475 67.3L386.2 88.9L407.2 129.6Z" fill="#227197" stroke="#227197"></path><path d="M407.2 129.6L359.2 84.3L352.3 165.9Z" fill="#257aa4" stroke="#257aa4"></path><path d="M340.4 313.7L361.2 303L361.2 265.7Z" fill="#32a1d8" stroke="#32a1d8"></path><path d="M361.2 265.7L361.2 303L442.1 309.7Z" fill="#174c66" stroke="#174c66"></path><path d="M340.4 313.7L361.2 265.7L315.3 303Z" fill="#2b8dbe" stroke="#2b8dbe"></path><path d="M580.9 138.1L543 136.6L539 166.1Z" fill="#174c66" stroke="#174c66"></path><path d="M539 166.1L543 136.6L464.1 182.9Z" fill="#257aa4" stroke="#257aa4"></path><path d="M386.2 88.9L359.2 84.3L407.2 129.6Z" fill="#227197" stroke="#227197"></path><path d="M543 136.6L475 67.3L464.1 182.9Z" fill="#1f678b" stroke="#1f678b"></path><path d="M386.2 88.9L405.1 51.6L359.2 84.3Z" fill="#32a1d8" stroke="#32a1d8"></path><path d="M315.3 303L361.2 265.7L351.2 242.4Z" fill="#174c66" stroke="#174c66"></path><path d="M361.2 303L340.4 313.7L442.1 309.7Z" fill="#257aa4" stroke="#257aa4"></path><path d="M527 275.7L581.7 212.4L539 166.1Z" fill="#1a5572" stroke="#1a5572"></path><path d="M580.9 138.1L539 97.9L543 136.6Z" fill="#1c5e7e" stroke="#1c5e7e"></path><path d="M543 136.6L539 97.9L475 67.3Z" fill="#2e97cb" stroke="#2e97cb"></path><path d="M270.4 188.1L287.4 235.4L323.3 171.4Z" fill="#1f678b" stroke="#1f678b"></path><path d="M323.3 171.4L287.4 235.4L351.2 242.4Z" fill="#1c5e7e" stroke="#1c5e7e"></path><path d="M359.2 84.3L301.4 130.9L352.3 165.9Z" fill="#257aa4" stroke="#257aa4"></path><path d="M287.4 235.4L287.5 238.4L351.2 242.4Z" fill="#1a5572" stroke="#1a5572"></path><path d="M475 67.3L405.1 51.6L386.2 88.9Z" fill="#174c66" stroke="#174c66"></path><path d="M442.1 309.7L543.9 313.7L487 303Z" fill="#2e97cb" stroke="#2e97cb"></path><path d="M496.1 303L543.9 313.7L527 275.7Z" fill="#32a1d8" stroke="#32a1d8"></path><path d="M527 275.7L590.9 262.4L581.7 212.4Z" fill="#35abe6" stroke="#35abe6"></path><path d="M340.4 313.7L543.9 313.7L442.1 309.7Z" fill="#2e97cb" stroke="#2e97cb"></path><path d="M287.5 238.4L315.3 303L351.2 242.4Z" fill="#2e97cb" stroke="#2e97cb"></path><path d="M539 97.9L481.9 51.3L475 67.3Z" fill="#32a1d8" stroke="#32a1d8"></path><path d="M475 67.3L481.9 51.3L405.1 51.6Z" fill="#1a5572" stroke="#1a5572"></path><path d="M584.9 140.9L580.9 138.1L539 166.1Z" fill="#2884b1" stroke="#2884b1"></path><path d="M602.8 183.9L584.9 140.9L539 166.1Z" fill="#1f678b" stroke="#1f678b"></path><path d="M583.9 91.6L561.8 77.6L539 97.9Z" fill="#2e97cb" stroke="#2e97cb"></path><path d="M258.5 145.1L229.5 48.3L211.5 130.9Z" fill="#2e97cb" stroke="#2e97cb"></path><path d="M359.2 84.3L291.3 127.6L301.4 130.9Z" fill="#1a5572" stroke="#1a5572"></path><path d="M301.4 130.9L270.4 188.1L323.3 171.4Z" fill="#1a5572" stroke="#1a5572"></path><path d="M543.9 313.7L563.9 303L527 275.7Z" fill="#1a5572" stroke="#1a5572"></path><path d="M258.5 145.1L270.4 188.1L301.4 130.9Z" fill="#1f678b" stroke="#1f678b"></path><path d="M287.4 235.4L236.5 247.7L287.5 238.4Z" fill="#32a1d8" stroke="#32a1d8"></path><path d="M563.9 303L590.9 262.4L527 275.7Z" fill="#174c66" stroke="#174c66"></path><path d="M581.7 212.4L602.8 183.9L539 166.1Z" fill="#35abe6" stroke="#35abe6"></path><path d="M615.8 202.7L602.8 183.9L581.7 212.4Z" fill="#32a1d8" stroke="#32a1d8"></path><path d="M583.9 91.6L539 97.9L580.9 138.1Z" fill="#1c5e7e" stroke="#1c5e7e"></path><path d="M539 97.9L561.8 77.6L481.9 51.3Z" fill="#1c5e7e" stroke="#1c5e7e"></path><path d="M583.9 91.6L580.9 138.1L584.9 140.9Z" fill="#2e97cb" stroke="#2e97cb"></path><path d="M623.8 209.1L615.8 202.7L623.8 216.4Z" fill="#1f678b" stroke="#1f678b"></path><path d="M607.7 57.6L583.9 91.6L634.8 84.3Z" fill="#2b8dbe" stroke="#2b8dbe"></path><path d="M583.9 91.6L584.9 140.9L634.8 84.3Z" fill="#257aa4" stroke="#257aa4"></path><path d="M291.3 127.6L258.5 145.1L301.4 130.9Z" fill="#1f678b" stroke="#1f678b"></path><path d="M287.3 18.3L291.3 127.6L359.2 84.3Z" fill="#35abe6" stroke="#35abe6"></path><path d="M623.8 216.4L615.8 202.7L581.7 212.4Z" fill="#35abe6" stroke="#35abe6"></path><path d="M615.8 202.7L623.8 209.1L602.8 183.9Z" fill="#2b8dbe" stroke="#2b8dbe"></path><path d="M590.9 262.4L623.8 216.4L581.7 212.4Z" fill="#1a5572" stroke="#1a5572"></path><path d="M638.7 230.7L623.8 216.4L590.9 262.4Z" fill="#2884b1" stroke="#2884b1"></path><path d="M583.9 91.6L581.7 69.3L561.8 77.6Z" fill="#174c66" stroke="#174c66"></path><path d="M519.9 0L495.1 12.3L481.9 51.3Z" fill="#32a1d8" stroke="#32a1d8"></path><path d="M607.7 57.6L581.7 69.3L583.9 91.6Z" fill="#32a1d8" stroke="#32a1d8"></path><path d="M515 0L495.1 12.3L519.9 0Z" fill="#1a5572" stroke="#1a5572"></path><path d="M481.9 51.3L414.1 0L405.1 51.6Z" fill="#1a5572" stroke="#1a5572"></path><path d="M270.4 188.1L236.5 247.7L287.4 235.4Z" fill="#174c66" stroke="#174c66"></path><path d="M287.5 238.4L242.5 303L315.3 303Z" fill="#35abe6" stroke="#35abe6"></path><path d="M188.6 219.4L236.5 247.7L270.4 188.1Z" fill="#2e97cb" stroke="#2e97cb"></path><path d="M495.1 12.3L414.1 0L481.9 51.3Z" fill="#35abe6" stroke="#35abe6"></path><path d="M405.1 51.6L338.4 22.3L359.2 84.3Z" fill="#35abe6" stroke="#35abe6"></path><path d="M378.3 0L338.4 22.3L405.1 51.6Z" fill="#227197" stroke="#227197"></path><path d="M623.8 216.4L638.7 230.7L623.8 209.1Z" fill="#227197" stroke="#227197"></path><path d="M634.8 84.3L584.9 140.9L649.7 93.9Z" fill="#227197" stroke="#227197"></path><path d="M632.8 303L638.7 230.7L590.9 262.4Z" fill="#32a1d8" stroke="#32a1d8"></path><path d="M543.9 313.7L616.7 303L563.9 303Z" fill="#32a1d8" stroke="#32a1d8"></path><path d="M563.9 303L616.7 303L590.9 262.4Z" fill="#2884b1" stroke="#2884b1"></path><path d="M414.1 0L390.2 0L405.1 51.6Z" fill="#1f678b" stroke="#1f678b"></path><path d="M390.2 0L378.3 0L405.1 51.6Z" fill="#227197" stroke="#227197"></path><path d="M236.5 247.7L242.5 303L287.5 238.4Z" fill="#257aa4" stroke="#257aa4"></path><path d="M315.3 303L242.5 303L340.4 313.7Z" fill="#227197" stroke="#227197"></path><path d="M519.9 0L481.9 51.3L561.8 77.6Z" fill="#35abe6" stroke="#35abe6"></path><path d="M495.1 12.3L515 0L414.1 0Z" fill="#2e97cb" stroke="#2e97cb"></path><path d="M546.8 0L519.9 0L561.8 77.6Z" fill="#32a1d8" stroke="#32a1d8"></path><path d="M543.9 313.7L632.8 303L616.7 303Z" fill="#32a1d8" stroke="#32a1d8"></path><path d="M616.7 303L632.8 303L590.9 262.4Z" fill="#227197" stroke="#227197"></path><path d="M236.5 247.7L235.4 303L242.5 303Z" fill="#1f678b" stroke="#1f678b"></path><path d="M242.5 303L235.4 303L340.4 313.7Z" fill="#1f678b" stroke="#1f678b"></path><path d="M584.9 140.9L602.8 183.9L649.7 93.9Z" fill="#35abe6" stroke="#35abe6"></path><path d="M581.7 69.3L546.8 0L561.8 77.6Z" fill="#257aa4" stroke="#257aa4"></path><path d="M663.6 244.4L659.7 224.1L638.7 230.7Z" fill="#174c66" stroke="#174c66"></path><path d="M638.7 230.7L659.7 224.1L623.8 209.1Z" fill="#2b8dbe" stroke="#2b8dbe"></path><path d="M607.7 57.6L546.8 0L581.7 69.3Z" fill="#174c66" stroke="#174c66"></path><path d="M649.7 93.9L602.8 183.9L698.6 122.1Z" fill="#1c5e7e" stroke="#1c5e7e"></path><path d="M632.8 303L663.6 244.4L638.7 230.7Z" fill="#32a1d8" stroke="#32a1d8"></path><path d="M649.7 93.9L634.6 72.9L634.8 84.3Z" fill="#2b8dbe" stroke="#2b8dbe"></path><path d="M229.5 48.3L258.5 145.1L291.3 127.6Z" fill="#174c66" stroke="#174c66"></path><path d="M258.5 145.1L200.6 170.9L270.4 188.1Z" fill="#227197" stroke="#227197"></path><path d="M236.5 247.7L169.6 270.7L235.4 303Z" fill="#2e97cb" stroke="#2e97cb"></path><path d="M378.3 0L287.3 18.3L338.4 22.3Z" fill="#2e97cb" stroke="#2e97cb"></path><path d="M338.4 22.3L287.3 18.3L359.2 84.3Z" fill="#2b8dbe" stroke="#2b8dbe"></path><path d="M211.5 130.9L200.6 170.9L258.5 145.1Z" fill="#174c66" stroke="#174c66"></path><path d="M602.8 183.9L623.8 209.1L698.6 122.1Z" fill="#257aa4" stroke="#257aa4"></path><path d="M634.8 84.3L634.6 72.9L607.7 57.6Z" fill="#2884b1" stroke="#2884b1"></path><path d="M607.7 57.6L633.7 0L546.8 0Z" fill="#1a5572" stroke="#1a5572"></path><path d="M698.6 122.1L623.8 209.1L659.7 224.1Z" fill="#2884b1" stroke="#2884b1"></path><path d="M211.5 130.9L195.7 171.1L200.6 170.9Z" fill="#1f678b" stroke="#1f678b"></path><path d="M200.6 170.9L188.6 219.4L270.4 188.1Z" fill="#32a1d8" stroke="#32a1d8"></path><path d="M195.7 171.1L188.6 219.4L200.6 170.9Z" fill="#2b8dbe" stroke="#2b8dbe"></path><path d="M287.3 18.3L243.4 39.6L291.3 127.6Z" fill="#1a5572" stroke="#1a5572"></path><path d="M211.5 130.9L116.7 126.6L195.7 171.1Z" fill="#35abe6" stroke="#35abe6"></path><path d="M243.4 39.6L229.5 48.3L291.3 127.6Z" fill="#257aa4" stroke="#257aa4"></path><path d="M229.5 48.3L194.5 76.6L211.5 130.9Z" fill="#2e97cb" stroke="#2e97cb"></path><path d="M153.6 226.1L169.6 270.7L188.6 219.4Z" fill="#35abe6" stroke="#35abe6"></path><path d="M153.6 226.1L188.6 219.4L195.7 171.1Z" fill="#2e97cb" stroke="#2e97cb"></path><path d="M188.6 219.4L169.6 270.7L236.5 247.7Z" fill="#1a5572" stroke="#1a5572"></path><path d="M741.5 190.1L698.6 122.1L659.7 224.1Z" fill="#2e97cb" stroke="#2e97cb"></path><path d="M649.7 93.9L676.5 36.6L634.6 72.9Z" fill="#174c66" stroke="#174c66"></path><path d="M634.6 72.9L633.7 0L607.7 57.6Z" fill="#257aa4" stroke="#257aa4"></path><path d="M229.5 48.3L219.6 30.6L194.5 76.6Z" fill="#1f678b" stroke="#1f678b"></path><path d="M243.4 39.6L219.6 30.6L229.5 48.3Z" fill="#227197" stroke="#227197"></path><path d="M238.4 0L219.6 30.6L243.4 39.6Z" fill="#1c5e7e" stroke="#1c5e7e"></path><path d="M242.5 0L243.4 39.6L287.3 18.3Z" fill="#35abe6" stroke="#35abe6"></path><path d="M378.3 0L242.5 0L287.3 18.3Z" fill="#1a5572" stroke="#1a5572"></path><path d="M759.5 136.9L702.6 117.6L698.6 122.1Z" fill="#174c66" stroke="#174c66"></path><path d="M698.6 122.1L702.6 117.6L649.7 93.9Z" fill="#1f678b" stroke="#1f678b"></path><path d="M242.5 0L238.4 0L243.4 39.6Z" fill="#2b8dbe" stroke="#2b8dbe"></path><path d="M138.8 228.4L153.6 226.1L93.8 181.1Z" fill="#2e97cb" stroke="#2e97cb"></path><path d="M676.5 36.6L633.7 0L634.6 72.9Z" fill="#174c66" stroke="#174c66"></path><path d="M715.6 303L723.6 232.7L663.6 244.4Z" fill="#257aa4" stroke="#257aa4"></path><path d="M663.6 244.4L723.6 232.7L659.7 224.1Z" fill="#32a1d8" stroke="#32a1d8"></path><path d="M702.6 117.6L676.5 36.6L649.7 93.9Z" fill="#257aa4" stroke="#257aa4"></path><path d="M219.6 30.6L135.7 11.3L194.5 76.6Z" fill="#1f678b" stroke="#1f678b"></path><path d="M238.4 0L216.6 3.3L219.6 30.6Z" fill="#35abe6" stroke="#35abe6"></path><path d="M125.8 232.7L138.8 228.4L93.8 181.1Z" fill="#2b8dbe" stroke="#2b8dbe"></path><path d="M153.6 226.1L138.8 228.4L169.6 270.7Z" fill="#2884b1" stroke="#2884b1"></path><path d="M153.6 226.1L195.7 171.1L93.8 181.1Z" fill="#1f678b" stroke="#1f678b"></path><path d="M767.5 315.7L715.6 303L632.8 303Z" fill="#32a1d8" stroke="#32a1d8"></path><path d="M632.8 303L715.6 303L663.6 244.4Z" fill="#35abe6" stroke="#35abe6"></path><path d="M742.5 303L738.4 233.4L723.6 232.7Z" fill="#1c5e7e" stroke="#1c5e7e"></path><path d="M723.6 232.7L741.5 190.1L659.7 224.1Z" fill="#1c5e7e" stroke="#1c5e7e"></path><path d="M125.8 303L146.6 303L103.7 269.4Z" fill="#1f678b" stroke="#1f678b"></path><path d="M169.6 270.7L146.6 303L235.4 303Z" fill="#1c5e7e" stroke="#1c5e7e"></path><path d="M235.4 303L146.6 303L340.4 313.7Z" fill="#2e97cb" stroke="#2e97cb"></path><path d="M238.4 0L206.6 0L216.6 3.3Z" fill="#2e97cb" stroke="#2e97cb"></path><path d="M216.6 3.3L206.6 0L219.6 30.6Z" fill="#32a1d8" stroke="#32a1d8"></path><path d="M738.4 233.4L741.5 190.1L723.6 232.7Z" fill="#1a5572" stroke="#1a5572"></path><path d="M684.6 0L681.6 -2.7L676.5 36.6Z" fill="#32a1d8" stroke="#32a1d8"></path><path d="M134.7 80.9L211.5 130.9L194.5 76.6Z" fill="#257aa4" stroke="#257aa4"></path><path d="M138.8 228.4L125.8 232.7L169.6 270.7Z" fill="#174c66" stroke="#174c66"></path><path d="M684.6 0L676.5 36.6L741.4 65.3Z" fill="#1a5572" stroke="#1a5572"></path><path d="M676.5 36.6L681.6 -2.7L633.7 0Z" fill="#35abe6" stroke="#35abe6"></path><path d="M633.7 0L681.6 -2.7L546.8 0Z" fill="#2b8dbe" stroke="#2b8dbe"></path><path d="M546.8 0L681.6 -2.7L519.9 0Z" fill="#35abe6" stroke="#35abe6"></path><path d="M519.9 0L681.6 -2.7L515 0Z" fill="#227197" stroke="#227197"></path><path d="M515 0L681.6 -2.7L414.1 0Z" fill="#1f678b" stroke="#1f678b"></path><path d="M414.1 0L0 -6.7L390.2 0Z" fill="#174c66" stroke="#174c66"></path><path d="M390.2 0L0 -6.7L378.3 0Z" fill="#257aa4" stroke="#257aa4"></path><path d="M378.3 0L0 -6.7L242.5 0Z" fill="#257aa4" stroke="#257aa4"></path><path d="M242.5 0L0 -6.7L238.4 0Z" fill="#2b8dbe" stroke="#2b8dbe"></path><path d="M238.4 0L0 -6.7L206.6 0Z" fill="#1a5572" stroke="#1a5572"></path><path d="M741.4 65.3L676.5 36.6L702.6 117.6Z" fill="#35abe6" stroke="#35abe6"></path><path d="M767.5 315.7L742.5 303L715.6 303Z" fill="#35abe6" stroke="#35abe6"></path><path d="M715.6 303L742.5 303L723.6 232.7Z" fill="#35abe6" stroke="#35abe6"></path><path d="M738.4 233.4L759.5 193.4L741.5 190.1Z" fill="#174c66" stroke="#174c66"></path><path d="M767.5 315.7L743.4 303L742.5 303Z" fill="#2b8dbe" stroke="#2b8dbe"></path><path d="M742.5 303L743.4 303L738.4 233.4Z" fill="#2e97cb" stroke="#2e97cb"></path><path d="M124.8 72.9L134.7 80.9L135.7 11.3Z" fill="#227197" stroke="#227197"></path><path d="M809.4 205.7L759.5 193.4L738.4 233.4Z" fill="#2e97cb" stroke="#2e97cb"></path><path d="M741.5 190.1L759.5 136.9L698.6 122.1Z" fill="#227197" stroke="#227197"></path><path d="M103.7 269.4L146.6 303L169.6 270.7Z" fill="#1a5572" stroke="#1a5572"></path><path d="M146.6 303L125.8 303L340.4 313.7Z" fill="#174c66" stroke="#174c66"></path><path d="M134.7 80.9L116.7 126.6L211.5 130.9Z" fill="#32a1d8" stroke="#32a1d8"></path><path d="M125.8 232.7L103.7 269.4L169.6 270.7Z" fill="#2884b1" stroke="#2884b1"></path><path d="M93.8 181.1L106.7 241.7L125.8 232.7Z" fill="#1f678b" stroke="#1f678b"></path><path d="M759.5 193.4L759.5 136.9L741.5 190.1Z" fill="#227197" stroke="#227197"></path><path d="M759.4 123.1L742.4 77.9L702.6 117.6Z" fill="#1c5e7e" stroke="#1c5e7e"></path><path d="M759.5 136.9L759.4 123.1L702.6 117.6Z" fill="#227197" stroke="#227197"></path><path d="M103.7 269.4L115.7 303L125.8 303Z" fill="#32a1d8" stroke="#32a1d8"></path><path d="M125.8 303L115.7 303L340.4 313.7Z" fill="#2884b1" stroke="#2884b1"></path><path d="M764.5 53.3L741.4 65.3L742.4 77.9Z" fill="#35abe6" stroke="#35abe6"></path><path d="M742.4 77.9L741.4 65.3L702.6 117.6Z" fill="#1c5e7e" stroke="#1c5e7e"></path><path d="M134.7 80.9L85.9 105.9L116.7 126.6Z" fill="#35abe6" stroke="#35abe6"></path><path d="M135.7 11.3L134.7 80.9L194.5 76.6Z" fill="#35abe6" stroke="#35abe6"></path><path d="M71.9 258.7L103.7 269.4L106.7 241.7Z" fill="#1c5e7e" stroke="#1c5e7e"></path><path d="M106.7 241.7L103.7 269.4L125.8 232.7Z" fill="#2884b1" stroke="#2884b1"></path><path d="M85.9 105.9L93.8 181.1L116.7 126.6Z" fill="#227197" stroke="#227197"></path><path d="M116.7 126.6L93.8 181.1L195.7 171.1Z" fill="#2884b1" stroke="#2884b1"></path><path d="M543.9 313.7L767.5 315.7L632.8 303Z" fill="#35abe6" stroke="#35abe6"></path><path d="M743.4 303L767.5 315.7L738.4 233.4Z" fill="#2e97cb" stroke="#2e97cb"></path><path d="M759.5 193.4L787.3 145.1L759.5 136.9Z" fill="#2884b1" stroke="#2884b1"></path><path d="M759.5 136.9L787.3 145.1L759.4 123.1Z" fill="#257aa4" stroke="#257aa4"></path><path d="M340.4 313.7L767.5 315.7L543.9 313.7Z" fill="#2884b1" stroke="#2884b1"></path><path d="M206.6 0L135.7 11.3L219.6 30.6Z" fill="#1c5e7e" stroke="#1c5e7e"></path><path d="M124.8 72.9L85.9 105.9L134.7 80.9Z" fill="#257aa4" stroke="#257aa4"></path><path d="M809.4 205.7L787.3 145.1L759.5 193.4Z" fill="#1c5e7e" stroke="#1c5e7e"></path><path d="M800.3 93.9L764.5 53.3L742.4 77.9Z" fill="#257aa4" stroke="#257aa4"></path><path d="M800.3 93.9L742.4 77.9L759.4 123.1Z" fill="#2e97cb" stroke="#2e97cb"></path><path d="M741.4 65.3L775.5 0L684.6 0Z" fill="#1a5572" stroke="#1a5572"></path><path d="M684.6 0L775.5 0L681.6 -2.7Z" fill="#257aa4" stroke="#257aa4"></path><path d="M84.8 82.3L85.9 105.9L124.8 72.9Z" fill="#257aa4" stroke="#257aa4"></path><path d="M93.8 181.1L71.9 258.7L106.7 241.7Z" fill="#174c66" stroke="#174c66"></path><path d="M103.7 269.4L60.9 303L115.7 303Z" fill="#2e97cb" stroke="#2e97cb"></path><path d="M30.9 202.1L71.9 258.7L93.8 181.1Z" fill="#257aa4" stroke="#257aa4"></path><path d="M74.9 78.3L84.8 82.3L77.8 36.6Z" fill="#2884b1" stroke="#2884b1"></path><path d="M25.9 131.6L30.9 202.1L93.8 181.1Z" fill="#32a1d8" stroke="#32a1d8"></path><path d="M815.3 303L809.4 205.7L738.4 233.4Z" fill="#35abe6" stroke="#35abe6"></path><path d="M787.3 145.1L800.3 93.9L759.4 123.1Z" fill="#257aa4" stroke="#257aa4"></path><path d="M206.6 0L117.7 0L135.7 11.3Z" fill="#1f678b" stroke="#1f678b"></path><path d="M135.7 11.3L77.8 36.6L124.8 72.9Z" fill="#257aa4" stroke="#257aa4"></path><path d="M0 -6.7L117.7 0L206.6 0Z" fill="#1c5e7e" stroke="#1c5e7e"></path><path d="M819.3 115.6L800.3 93.9L787.3 145.1Z" fill="#257aa4" stroke="#257aa4"></path><path d="M77.8 36.6L84.8 82.3L124.8 72.9Z" fill="#2b8dbe" stroke="#2b8dbe"></path><path d="M84.8 82.3L74.9 78.3L85.9 105.9Z" fill="#32a1d8" stroke="#32a1d8"></path><path d="M28.9 261.4L60.9 303L71.9 258.7Z" fill="#35abe6" stroke="#35abe6"></path><path d="M71.9 258.7L60.9 303L103.7 269.4Z" fill="#257aa4" stroke="#257aa4"></path><path d="M115.7 303L60.9 303L340.4 313.7Z" fill="#2b8dbe" stroke="#2b8dbe"></path><path d="M815.3 303L825.2 202.1L809.4 205.7Z" fill="#257aa4" stroke="#257aa4"></path><path d="M809.4 205.7L825.2 202.1L787.3 145.1Z" fill="#1c5e7e" stroke="#1c5e7e"></path><path d="M0 -6.7L99.8 0L117.7 0Z" fill="#2e97cb" stroke="#2e97cb"></path><path d="M117.7 0L77.8 36.6L135.7 11.3Z" fill="#1a5572" stroke="#1a5572"></path><path d="M767.5 315.7L815.3 303L738.4 233.4Z" fill="#257aa4" stroke="#257aa4"></path><path d="M825.2 202.1L819.3 115.6L787.3 145.1Z" fill="#1a5572" stroke="#1a5572"></path><path d="M99.8 0L77.8 36.6L117.7 0Z" fill="#174c66" stroke="#174c66"></path><path d="M821.4 54.6L764.5 53.3L800.3 93.9Z" fill="#2884b1" stroke="#2884b1"></path><path d="M798.4 0L775.5 0L764.5 53.3Z" fill="#2e97cb" stroke="#2e97cb"></path><path d="M764.5 53.3L775.5 0L741.4 65.3Z" fill="#1f678b" stroke="#1f678b"></path><path d="M25.9 131.6L85.9 105.9L74.9 78.3Z" fill="#32a1d8" stroke="#32a1d8"></path><path d="M25.9 131.6L93.8 181.1L85.9 105.9Z" fill="#32a1d8" stroke="#32a1d8"></path><path d="M30.9 202.1L28.9 261.4L71.9 258.7Z" fill="#2b8dbe" stroke="#2b8dbe"></path><path d="M848.2 92.9L800.3 93.9L819.3 115.6Z" fill="#32a1d8" stroke="#32a1d8"></path><path d="M848.2 92.9L821.4 54.6L800.3 93.9Z" fill="#1c5e7e" stroke="#1c5e7e"></path><path d="M0 98.9L25.9 131.6L74.9 78.3Z" fill="#1f678b" stroke="#1f678b"></path><path d="M30.9 202.1L0 222.1L28.9 261.4Z" fill="#1c5e7e" stroke="#1c5e7e"></path><path d="M821.4 54.6L798.4 0L764.5 53.3Z" fill="#1a5572" stroke="#1a5572"></path><path d="M775.5 0L848.3 -3.7L681.6 -2.7Z" fill="#257aa4" stroke="#257aa4"></path><path d="M898.1 133.1L848.2 92.9L819.3 115.6Z" fill="#35abe6" stroke="#35abe6"></path><path d="M821.4 54.6L825.2 10.3L798.4 0Z" fill="#174c66" stroke="#174c66"></path><path d="M880.3 177.4L819.3 115.6L825.2 202.1Z" fill="#2884b1" stroke="#2884b1"></path><path d="M848.3 0L825.2 10.3L821.4 54.6Z" fill="#227197" stroke="#227197"></path><path d="M0 180.4L0 222.1L30.9 202.1Z" fill="#227197" stroke="#227197"></path><path d="M25.9 131.6L0 180.4L30.9 202.1Z" fill="#2b8dbe" stroke="#2b8dbe"></path><path d="M99.8 0L43.9 0L77.8 36.6Z" fill="#2e97cb" stroke="#2e97cb"></path><path d="M0 82.6L0 98.9L74.9 78.3Z" fill="#227197" stroke="#227197"></path><path d="M25.9 131.6L0 98.9L0 180.4Z" fill="#32a1d8" stroke="#32a1d8"></path><path d="M0 -6.7L43.9 0L99.8 0Z" fill="#2884b1" stroke="#2884b1"></path><path d="M0 222.1L0 293.7L28.9 261.4Z" fill="#2e97cb" stroke="#2e97cb"></path><path d="M28.9 261.4L0 293.7L60.9 303Z" fill="#174c66" stroke="#174c66"></path><path d="M882.1 251.4L880.3 177.4L825.2 202.1Z" fill="#32a1d8" stroke="#32a1d8"></path><path d="M894.1 31.3L848.3 0L821.4 54.6Z" fill="#227197" stroke="#227197"></path><path d="M0 293.7L0 303L60.9 303Z" fill="#1f678b" stroke="#1f678b"></path><path d="M60.9 303L0 303L340.4 313.7Z" fill="#227197" stroke="#227197"></path><path d="M0 82.6L74.9 78.3L77.8 36.6Z" fill="#257aa4" stroke="#257aa4"></path><path d="M815.3 303L882.1 251.4L825.2 202.1Z" fill="#1c5e7e" stroke="#1c5e7e"></path><path d="M43.9 0L0 82.6L77.8 36.6Z" fill="#1f678b" stroke="#1f678b"></path><path d="M900.2 253.7L887.3 248.7L882.1 251.4Z" fill="#1a5572" stroke="#1a5572"></path><path d="M882.1 251.4L887.3 248.7L880.3 177.4Z" fill="#1a5572" stroke="#1a5572"></path><path d="M920.1 314.7L883.2 303L815.3 303Z" fill="#35abe6" stroke="#35abe6"></path><path d="M815.3 303L883.2 303L882.1 251.4Z" fill="#2e97cb" stroke="#2e97cb"></path><path d="M798.4 0L848.3 -3.7L775.5 0Z" fill="#2884b1" stroke="#2884b1"></path><path d="M825.2 10.3L848.3 -3.7L798.4 0Z" fill="#1c5e7e" stroke="#1c5e7e"></path><path d="M894.1 31.3L821.4 54.6L848.2 92.9Z" fill="#1a5572" stroke="#1a5572"></path><path d="M905.2 0L848.3 -3.7L848.3 0Z" fill="#2e97cb" stroke="#2e97cb"></path><path d="M848.3 0L848.3 -3.7L825.2 10.3Z" fill="#174c66" stroke="#174c66"></path><path d="M0 -6.7L0 0L43.9 0Z" fill="#1c5e7e" stroke="#1c5e7e"></path><path d="M936.2 174.4L899.1 159.9L880.3 177.4Z" fill="#2e97cb" stroke="#2e97cb"></path><path d="M880.3 177.4L898.1 133.1L819.3 115.6Z" fill="#227197" stroke="#227197"></path><path d="M900.2 253.7L880.3 177.4L887.3 248.7Z" fill="#2e97cb" stroke="#2e97cb"></path><path d="M883.2 303L900.2 253.7L882.1 251.4Z" fill="#35abe6" stroke="#35abe6"></path><path d="M899.1 159.9L898.1 133.1L880.3 177.4Z" fill="#1f678b" stroke="#1f678b"></path><path d="M898.1 133.1L900.2 107.6L848.2 92.9Z" fill="#2884b1" stroke="#2884b1"></path><path d="M952.1 99.6L900.2 107.6L898.1 133.1Z" fill="#227197" stroke="#227197"></path><path d="M936.2 174.4L898.1 133.1L899.1 159.9Z" fill="#1a5572" stroke="#1a5572"></path><path d="M0 -6.7L414.1 0L681.6 -2.7Z" fill="#32a1d8" stroke="#32a1d8"></path><path d="M43.9 0L0 0L0 82.6Z" fill="#1f678b" stroke="#1f678b"></path><path d="M848.3 -3.7L0 -6.7L681.6 -2.7Z" fill="#1a5572" stroke="#1a5572"></path><path d="M900.2 107.6L894.1 31.3L848.2 92.9Z" fill="#1f678b" stroke="#1f678b"></path><path d="M767.5 315.7L920.1 314.7L815.3 303Z" fill="#2884b1" stroke="#2884b1"></path><path d="M883.2 303L920.1 314.7L900.2 253.7Z" fill="#174c66" stroke="#174c66"></path><path d="M900.2 253.7L936.2 174.4L880.3 177.4Z" fill="#1a5572" stroke="#1a5572"></path><path d="M978 39.6L905.2 0L894.1 31.3Z" fill="#1a5572" stroke="#1a5572"></path><path d="M978 218.1L936.2 174.4L900.2 253.7Z" fill="#32a1d8" stroke="#32a1d8"></path><path d="M952.1 99.6L894.1 31.3L900.2 107.6Z" fill="#2b8dbe" stroke="#2b8dbe"></path><path d="M894.1 31.3L905.2 0L848.3 0Z" fill="#257aa4" stroke="#257aa4"></path><path d="M936.2 174.4L952.1 99.6L898.1 133.1Z" fill="#1f678b" stroke="#1f678b"></path><path d="M978 129.9L952.1 99.6L936.2 174.4Z" fill="#174c66" stroke="#174c66"></path><path d="M920.1 314.7L959.1 303L900.2 253.7Z" fill="#257aa4" stroke="#257aa4"></path><path d="M978 265.7L978 218.1L900.2 253.7Z" fill="#1f678b" stroke="#1f678b"></path><path d="M978 218.1L978 171.4L936.2 174.4Z" fill="#1c5e7e" stroke="#1c5e7e"></path><path d="M959.1 303L978 265.7L900.2 253.7Z" fill="#257aa4" stroke="#257aa4"></path><path d="M978 171.4L978 129.9L936.2 174.4Z" fill="#2884b1" stroke="#2884b1"></path><path d="M952.1 99.6L978 39.6L894.1 31.3Z" fill="#1a5572" stroke="#1a5572"></path><path d="M920.1 314.7L978 303L959.1 303Z" fill="#2884b1" stroke="#2884b1"></path><path d="M959.1 303L978 303L978 265.7Z" fill="#35abe6" stroke="#35abe6"></path><path d="M978 129.9L978 93.3L952.1 99.6Z" fill="#1c5e7e" stroke="#1c5e7e"></path><path d="M978 93.3L978 39.6L952.1 99.6Z" fill="#32a1d8" stroke="#32a1d8"></path><path d="M978 39.6L978 0L905.2 0Z" fill="#227197" stroke="#227197"></path><path d="M905.2 0L978 0L848.3 -3.7Z" fill="#2e97cb" stroke="#2e97cb"></path><path d="M978 93.3L979.1 0L978 39.6Z" fill="#35abe6" stroke="#35abe6"></path><path d="M978 39.6L979.1 0L978 0Z" fill="#227197" stroke="#227197"></path><path d="M978 0L979.1 0L848.3 -3.7Z" fill="#32a1d8" stroke="#32a1d8"></path><path d="M978 129.9L979.1 0L978 93.3Z" fill="#2e97cb" stroke="#2e97cb"></path><path d="M978 171.4L979.1 0L978 129.9Z" fill="#174c66" stroke="#174c66"></path><path d="M978 218.1L979.1 0L978 171.4Z" fill="#1c5e7e" stroke="#1c5e7e"></path><path d="M978 265.7L979.1 0L978 218.1Z" fill="#227197" stroke="#227197"></path><path d="M978 303L979.1 0L978 265.7Z" fill="#1a5572" stroke="#1a5572"></path></g></svg>