<?xml version="1.0"?>
<svg version="1.1" xmlns="http://www.w3.org/2000/svg" width="400" height="200" style="border: dashed 2px #aaa"><path fill="#f5f5f5" d="M33.78515625,96.80078125l0,12.93359375q0,2.21484375-0.9912109375,3.8828125t-2.8642578125,2.556640625t-4.4296875,0.888671875q-3.85546875,0-5.98828125-1.9755859375t-2.1328125-5.4072265625l0-12.87890625l4.224609375,0l0,12.236328125q0,2.310546875,0.9296875,3.390625t3.076171875,1.080078125q2.078125,0,3.0146484375-1.0869140625t0.9365234375-3.4111328125l0-12.208984375l4.224609375,0z M54.38552734375,116.7890625l-4.169921875,0l0-8.927734375q0-1.654296875-0.587890625-2.4814453125t-1.873046875-0.8271484375q-1.75,0-2.529296875,1.1689453125t-0.779296875,3.8759765625l0,7.19140625l-4.169921875,0l0-15.28515625l3.185546875,0l0.560546875,1.955078125l0.232421875,0q0.697265625-1.107421875,1.9208984375-1.6748046875t2.7822265625-0.5673828125q2.666015625,0,4.046875,1.4423828125t1.380859375,4.1630859375l0,9.966796875z M70.3101171875,116.7890625l-0.806640625-2.078125l-0.109375,0q-1.052734375,1.326171875-2.1669921875,1.8388671875t-2.9052734375,0.5126953125q-2.201171875,0-3.4658203125-1.2578125t-1.2646484375-3.58203125q0-2.43359375,1.7021484375-3.5888671875t5.1337890625-1.2783203125l2.65234375-0.08203125l0-0.669921875q0-2.32421875-2.37890625-2.32421875q-1.83203125,0-4.306640625,1.107421875l-1.380859375-2.81640625q2.638671875-1.380859375,5.8515625-1.380859375q3.076171875,0,4.716796875,1.33984375t1.640625,4.07421875l0,10.185546875l-2.912109375,0z M69.0796484375,109.70703125l-1.61328125,0.0546875q-1.818359375,0.0546875-2.70703125,0.65625t-0.888671875,1.83203125q0,1.763671875,2.0234375,1.763671875q1.44921875,0,2.3173828125-0.833984375t0.8681640625-2.21484375l0-1.2578125z M93.20421875,106.20703125l1.39453125,0q1.955078125,0,2.92578125-0.7724609375t0.970703125-2.2490234375q0-1.490234375-0.8134765625-2.201171875t-2.5498046875-0.7109375l-1.927734375,0l0,5.93359375z M102.77453125,103.03515625q0,3.2265625-2.0166015625,4.935546875t-5.7353515625,1.708984375l-1.818359375,0l0,7.109375l-4.23828125,0l0-19.98828125l6.384765625,0q3.63671875,0,5.5302734375,1.5654296875t1.8935546875,4.6689453125z M117.85146484375,116.7890625l-0.806640625-2.078125l-0.109375,0q-1.052734375,1.326171875-2.1669921875,1.8388671875t-2.9052734375,0.5126953125q-2.201171875,0-3.4658203125-1.2578125t-1.2646484375-3.58203125q0-2.43359375,1.7021484375-3.5888671875t5.1337890625-1.2783203125l2.65234375-0.08203125l0-0.669921875q0-2.32421875-2.37890625-2.32421875q-1.83203125,0-4.306640625,1.107421875l-1.380859375-2.81640625q2.638671875-1.380859375,5.8515625-1.380859375q3.076171875,0,4.716796875,1.33984375t1.640625,4.07421875l0,10.185546875l-2.912109375,0z M116.62099609375,109.70703125l-1.61328125,0.0546875q-1.818359375,0.0546875-2.70703125,0.65625t-0.888671875,1.83203125q0,1.763671875,2.0234375,1.763671875q1.44921875,0,2.3173828125-0.833984375t0.8681640625-2.21484375l0-1.2578125z M140.2838671875,101.50390625l0,2.119140625l-2.392578125,0.615234375q0.65625,1.025390625,0.65625,2.296875q0,2.4609375-1.7158203125,3.8349609375t-4.7646484375,1.3740234375l-0.751953125-0.041015625l-0.615234375-0.068359375q-0.642578125,0.4921875-0.642578125,1.09375q0,0.90234375,2.296875,0.90234375l2.59765625,0q2.515625,0,3.8349609375,1.080078125t1.3193359375,3.171875q0,2.6796875-2.2353515625,4.15625t-6.4189453125,1.4765625q-3.19921875,0-4.8876953125-1.1142578125t-1.6884765625-3.1240234375q0-1.380859375,0.861328125-2.310546875t2.529296875-1.326171875q-0.642578125-0.2734375-1.12109375-0.8955078125t-0.478515625-1.3193359375q0-0.875,0.505859375-1.4560546875t1.462890625-1.1416015625q-1.203125-0.51953125-1.9072265625-1.66796875t-0.7041015625-2.70703125q0-2.501953125,1.626953125-3.869140625t4.6484375-1.3671875q0.642578125,0,1.5244140625,0.1162109375t1.1279296875,0.1708984375l5.33203125,0z M128.4850390625,118.94921875q0,0.861328125,0.8271484375,1.353515625t2.3173828125,0.4921875q2.2421875,0,3.513671875-0.615234375t1.271484375-1.681640625q0-0.861328125-0.751953125-1.189453125t-2.32421875-0.328125l-2.16015625,0q-1.1484375,0-1.9208984375,0.5400390625t-0.7724609375,1.4287109375z M130.0026171875,106.5078125q0,1.244140625,0.5673828125,1.96875t1.7294921875,0.724609375q1.17578125,0,1.72265625-0.724609375t0.546875-1.96875q0-2.76171875-2.26953125-2.76171875q-2.296875,0-2.296875,2.76171875z M151.05416015625,104.18359375q-1.326171875,0-2.078125,0.8408203125t-0.861328125,2.3857421875l5.8515625,0q-0.02734375-1.544921875-0.806640625-2.3857421875t-2.10546875-0.8408203125z M151.64205078125,117.0625q-3.69140625,0-5.76953125-2.037109375t-2.078125-5.76953125q0-3.841796875,1.9208984375-5.9404296875t5.3115234375-2.0986328125q3.240234375,0,5.044921875,1.845703125t1.8046875,5.099609375l0,2.0234375l-9.857421875,0q0.068359375,1.77734375,1.052734375,2.775390625t2.76171875,0.998046875q1.380859375,0,2.611328125-0.287109375t2.5703125-0.916015625l0,3.2265625q-1.09375,0.546875-2.337890625,0.8134765625t-3.03515625,0.2666015625z"/><path fill="#38b4f2" d="M167.32689453125,118.0986328125q-0.02099609375-0.6298828125-0.02099609375-1.259765625q0-1.9736328125,0.2099609375-3.96826171875q0.251953125-2.6455078125,0.3359375-5.20703125q0.083984375-3.00244140625,0.251953125-6.23583984375q0.10498046875-1.763671875,0.10498046875-3.4853515625q0-1.40673828125-0.06298828125-2.79248046875q0.2099609375-0.48291015625,0.556396484375-0.65087890625t0.871337890625-0.16796875q0.251953125,0,0.535400390625,0.0419921875t0.493408203125,0.2099609375q0.2939453125,0.0419921875,0.724365234375,0.083984375t0.661376953125,0.251953125q0.083984375,0.1259765625,0.430419921875,0.86083984375t0.81884765625,1.78466796875t0.98681640625,2.278076171875t0.98681640625,2.33056640625t0.81884765625,1.942138671875t0.430419921875,1.0498046875q1.9736328125-3.5693359375,3.86328125-7.338134765625t4.13623046875-7.107177734375q0.2099609375-0.2939453125,0.724365234375-0.430419921875t0.850341796875-0.136474609375q0.90283203125,0,1.312255859375,0.430419921875t0.535400390625,1.102294921875q0.083984375,0.419921875,0.10498046875,0.90283203125q0.02099609375,0.251953125-0.02099609375,0.52490234375q-0.083984375,0.77685546875-0.083984375,1.4697265625q0,4.89208984375-0.3359375,9.710693359375t-0.60888671875,9.731689453125q-0.0419921875,1.0078125-0.0419921875,2.099609375t0.0419921875,2.267578125q0.02099609375,0.419921875,0.02099609375,0.81884765625q0,1.84765625-0.31494140625,3.443359375q-0.2939453125,0.48291015625-0.9658203125,0.60888671875t-1.1337890625,0.1259765625q-0.98681640625,0-1.8896484375-0.4619140625l-0.23095703125-0.27294921875l-0.083984375-0.3359375t-0.0419921875-0.3359375q0-3.04443359375,0.220458984375-6.130859375t0.493408203125-6.162353515625t0.577392578125-6.141357421875t0.514404296875-6.130859375q-1.23876953125,2.0576171875-2.404052734375,4.188720703125t-2.194091796875,4.335693359375q-0.3779296875,0.86083984375-0.724365234375,1.84765625t-0.829345703125,1.763671875q-0.251953125,0.3779296875-0.850341796875,0.4619140625t-1.039306640625,0.083984375q-0.419921875,0-0.871337890625-0.14697265625t-0.619384765625-0.6298828125q-0.77685546875-2.37255859375-1.65869140625-4.64013671875t-1.78466796875-4.59814453125q0,1.5537109375,0.06298828125,4.020751953125t0.06298828125,5.112548828125t-0.083984375,5.06005859375t-0.39892578125,3.8212890625q-0.083984375,0.52490234375-0.682373046875,0.65087890625t-1.039306640625,0.1259765625q-0.3359375,0-0.640380859375-0.0419921875t-0.598388671875-0.16796875z M192.26332519531,113.66845703125q0-1.427734375,0.388427734375-2.75048828125t1.165283203125-2.362060546875t1.942138671875-1.65869140625t2.697998046875-0.619384765625q0.94482421875,0,2.089111328125,0.283447265625t2.152099609375,0.83984375t1.6796875,1.417236328125t0.671875,1.9736328125q0,0.52490234375-0.178466796875,0.7978515625t-0.724365234375,0.27294921875l-0.23095703125-0.0419921875q0.60888671875,1.6376953125,1.0498046875,3.359375t0.86083984375,3.443359375q0.16796875,0.3359375,0.251953125,0.598388671875t0.083984375,0.514404296875q0,0.3359375-0.18896484375,0.556396484375t-0.493408203125,0.325439453125t-0.6298828125,0.14697265625t-0.577392578125,0.0419921875q-0.90283203125,0-1.354248046875-0.31494140625t-0.65087890625-0.86083984375t-0.241455078125-1.228271484375t-0.16796875-1.375244140625q-0.251953125,0.81884765625-0.661376953125,1.595703125t-0.9658203125,1.396240234375t-1.312255859375,0.98681640625t-1.70068359375,0.367431640625q-1.3857421875,0-2.33056640625-0.7978515625t-1.522216796875-1.963134765625t-0.83984375-2.488037109375t-0.262451171875-2.45654296875z M195.24477050781,113.37451171875q0,0.77685546875,0.10498046875,1.6376953125t0.346435546875,1.70068359375t0.619384765625,1.585205078125t0.94482421875,1.312255859375q1.02880859375-1.11279296875,1.522216796875-2.70849609375t0.8818359375-3.075927734375t0.8818359375-2.54052734375t1.522216796875-1.060302734375q0.65087890625,0,1.091796875,0.23095703125q-0.2099609375-0.52490234375-0.69287109375-1.018310546875t-1.081298828125-0.90283203125t-1.23876953125-0.671875t-1.207275390625-0.262451171875q-0.16796875,0-0.388427734375,0.052490234375t-0.346435546875,0.010498046875q-0.86083984375,0.251953125-1.417236328125,0.871337890625t-0.90283203125,1.459228515625t-0.493408203125,1.7216796875t-0.14697265625,1.65869140625z M195.95863769531,97.7744140625q0-0.251953125,0.346435546875-0.73486328125t0.7978515625-0.934326171875l0.81884765625-0.81884765625t0.451416015625-0.409423828125q1.15478515625-1.02880859375,2.45654296875-1.02880859375q0.48291015625,0,1.039306640625,0.199462890625t0.556396484375,0.535400390625q0,0.2099609375-0.178466796875,0.325439453125t-0.304443359375,0.199462890625q-0.251953125,0-0.556396484375,0.2939453125t-0.671875,0.745361328125t-0.7978515625,0.98681640625t-0.892333984375,1.018310546875q-0.2939453125,0.3359375-0.83984375,0.3779296875t-0.755859375,0.0419921875q-0.3779296875,0-0.923828125-0.16796875t-0.5458984375-0.6298828125z M210.46000976562,108.25146484375q0-0.86083984375,0.50390625-1.480224609375t1.228271484375-1.0078125t1.585205078125-0.577392578125t1.595703125-0.18896484375q0.56689453125,0,1.51171875,0.16796875t1.84765625,0.50390625t1.564208984375,0.8818359375t0.661376953125,1.28076171875q0,0.3359375-0.251953125,0.598388671875t-0.52490234375,0.262451171875q-0.56689453125,0-1.02880859375-0.367431640625t-0.955322265625-0.77685546875t-1.081298828125-0.77685546875t-1.32275390625-0.367431640625t-1.333251953125,0.472412109375t-0.598388671875,1.249267578125q0,1.28076171875,0.90283203125,2.509033203125t1.984130859375,2.58251953125t1.984130859375,2.844970703125t0.90283203125,3.29638671875q0,0.77685546875-0.325439453125,1.312255859375t-0.86083984375,0.871337890625t-1.207275390625,0.514404296875t-1.3017578125,0.178466796875q-0.69287109375,0-1.61669921875-0.325439453125t-1.74267578125-0.86083984375t-1.375244140625-1.249267578125t-0.556396484375-1.49072265625q0-0.3779296875,0.535400390625-0.48291015625t0.787353515625-0.10498046875q0.1259765625,0,0.388427734375,0.083984375t0.514404296875,0.18896484375t0.451416015625,0.23095703125t0.157470703125,0.27294921875q0.2099609375,0.251953125,0.640380859375,0.745361328125t0.86083984375,0.7978515625t0.755859375,0.220458984375t0.325439453125-0.94482421875q0-1.6376953125-0.8818359375-3.012939453125t-1.921142578125-2.6875t-1.921142578125-2.603515625t-0.8818359375-2.760986328125z"/></svg>
